<?xml version="1.0" encoding="utf-8"?>
<!-- Generator: Adobe Illustrator 26.5.0, SVG Export Plug-In . SVG Version: 6.00 Build 0)  -->
<svg version="1.1" id="Layer_1" xmlns="http://www.w3.org/2000/svg" xmlns:xlink="http://www.w3.org/1999/xlink" x="0px" y="0px"
	 viewBox="0 0 3840 926.9" style="enable-background:new 0 0 3840 926.9;" xml:space="preserve">
<style type="text/css">
	.st0{fill:#190037;}
</style>
<g>
	<path class="st0" d="M880.9,192.4c-157.6,0-270.2,112.6-270.2,266.1c0,153.6,113.6,266.1,270.2,266.1S1150,612.1,1150,458.6
		C1150,305,1038.5,192.4,880.9,192.4z M880.8,616.2c-86,0-143.3-64.5-143.3-157.6c0-93.2,58.3-157.6,143.3-157.6
		c85,0,142.3,64.5,142.3,157.6C1023.1,551.7,966.8,616.2,880.8,616.2z"/>
	<path class="st0" d="M1445.7,620.3c-79.9,0-133.1-53.2-142.3-136.1h380.7c1-10.2,2-25.6,2-43c0-122.8-81.9-248.7-250.7-248.7
		c-168.9,0-252.8,128.9-252.8,264c0,135.1,94.2,268.2,263.1,268.2c126.9,0,223.2-70.7,242.6-180.2h-122.8
		C1552.2,593.7,1510.2,620.3,1445.7,620.3z M1435.5,286.6c74.7,0,119.7,49.1,124.8,114.6h-253.8
		C1319.8,323.4,1364.8,286.6,1435.5,286.6z"/>
	<rect x="217.8" y="598.7" class="st0" width="207.3" height="116.6"/>
	<path class="st0" d="M1864.8,660.6c28.8,40.1,84.3,64.8,147,64.8c152.2,0,249.9-109,249.9-267.3c0-158.4-91.5-267.3-240.6-267.3
		c-68.9,0-125.5,28.8-156.3,73v-64.8h-125.4v727.9h125.4V660.6z M1997.5,299.7c83.3,0,138.8,62.8,138.8,158.4
		s-53.5,158.4-138.8,158.4c-85.3,0-140.8-62.8-140.8-158.4S1914.2,299.7,1997.5,299.7z"/>
	<path class="st0" d="M2811.1,544.4C2811.1,544.4,2811.1,544.5,2811.1,544.4L2811.1,544.4L2811.1,544.4z"/>
	<path class="st0" d="M2567.5,725.4c127.5,0,224.1-70.9,243.7-180.9h-123.3c-13.4,49.3-55.5,76.1-120.3,76.1
		c-80.2,0-133.7-53.5-143-136.8h382.5c1-10.3,2-25.7,2-43.2c0-123.4-82.2-249.9-251.9-249.9c-169.7,0-254,129.6-254,265.3
		C2303.2,591.7,2397.8,725.4,2567.5,725.4z M2557.2,285.3c75.1,0,120.3,49.4,125.4,115.2h-255C2441,322.3,2486.3,285.3,2557.2,285.3
		z"/>
	<path class="st0" d="M3103.9,725.4c64.8,0,124.5-25.7,150.1-65.8v74c0,54.5-36,92.5-86.4,92.5h-238.6v100.7h256
		c116.2,0,194.3-73,194.3-180.9V199h-126.5v58.6c-29.8-40.1-86.3-66.8-151.1-66.8c-154.2,0-244.7,109-244.7,267.3
		C2857.1,616.5,2947.6,725.4,3103.9,725.4z M3121.4,299.7c85.3,0,140.8,62.8,140.8,158.4c0,95.6-56.6,158.4-140.8,158.4
		c-84.3,0-138.8-62.8-138.8-158.4C2982.6,362.4,3036,299.7,3121.4,299.7z"/>
	<path class="st0" d="M3639.5,725.4c121.4,0,200.5-63.8,200.5-161.5c0-234.5-287.9-111.1-287.9-223.2c0-35,29.8-55.5,75.1-55.5
		c40.1,0,84.4,24.7,91.5,73h115.2c-5.1-100.7-88.4-167.6-209.7-167.6c-106.9,0-186.1,63.7-186.1,154.2c0,219,283.8,109,283.8,224.1
		c0,30.8-32.9,55.5-82.2,55.5c-56.6,0-94.6-30.8-99.8-80.2h-115.2l-0.1,0.1C3430.8,655.5,3518.1,725.4,3639.5,725.4z"/>
	<rect x="100" y="481.1" class="st0" width="117.7" height="117.7"/>
	<rect y="381.1" class="st0" width="82.4" height="82.4"/>
	<polygon class="st0" points="425,0 296.5,0 296.5,116.6 425,116.6 425,598.7 560.2,598.7 560.2,0 521.7,0 	"/>
</g>
</svg>
